<svg width="72" height="72" viewBox="0 0 72 72" fill="none" xmlns="http://www.w3.org/2000/svg">
<path fill-rule="evenodd" clip-rule="evenodd" d="M6.75 36C6.75 19.845 19.845 6.75 36 6.75C52.155 6.75 65.25 19.845 65.25 36C65.25 52.155 52.155 65.25 36 65.25C19.845 65.25 6.75 52.155 6.75 36ZM46.83 30.558C47.01 30.3182 47.1402 30.0447 47.2131 29.7538C47.2859 29.4629 47.2998 29.1604 47.2541 28.8641C47.2083 28.5677 47.1037 28.2835 46.9466 28.0281C46.7894 27.7727 46.5827 27.5513 46.3388 27.377C46.0948 27.2026 45.8184 27.0787 45.5259 27.0127C45.2334 26.9466 44.9307 26.9397 44.6354 26.9924C44.3402 27.045 44.0585 27.1562 43.8068 27.3192C43.5552 27.4823 43.3387 27.694 43.17 27.942L33.462 41.532L28.59 36.66C28.1635 36.2626 27.5993 36.0462 27.0164 36.0565C26.4335 36.0668 25.8774 36.3029 25.4651 36.7151C25.0529 37.1274 24.8168 37.6835 24.8065 38.2664C24.7962 38.8493 25.0126 39.4135 25.41 39.84L32.16 46.59C32.391 46.8208 32.6694 46.9986 32.976 47.1109C33.2825 47.2233 33.6099 47.2676 33.9353 47.2408C34.2607 47.214 34.5764 47.1166 34.8604 46.9556C35.1444 46.7945 35.39 46.5735 35.58 46.308L46.83 30.558Z" fill="#00B050"/>
</svg>
