<svg width="227" height="17" viewBox="0 0 227 17" fill="none" xmlns="http://www.w3.org/2000/svg">
<path d="M226.707 9.70711C227.098 9.31658 227.098 8.68342 226.707 8.29289L220.343 1.92893C219.953 1.53841 219.319 1.53841 218.929 1.92893C218.538 2.31946 218.538 2.95262 218.929 3.34315L224.586 9L218.929 14.6569C218.538 15.0474 218.538 15.6805 218.929 16.0711C219.319 16.4616 219.953 16.4616 220.343 16.0711L226.707 9.70711ZM174 10H226V8H174V10Z" fill="black"/>
<path d="M0.292893 9.70711C-0.0976311 9.31658 -0.0976311 8.68342 0.292893 8.29289L6.65685 1.92893C7.04738 1.53841 7.68054 1.53841 8.07107 1.92893C8.46159 2.31946 8.46159 2.95262 8.07107 3.34315L2.41421 9L8.07107 14.6569C8.46159 15.0474 8.46159 15.6805 8.07107 16.0711C7.68054 16.4616 7.04738 16.4616 6.65685 16.0711L0.292893 9.70711ZM53 10H1V8H53V10Z" fill="black"/>
<path d="M63.1186 14V3.81818H69.4325V5.14062H64.6548V8.2429H68.9801V9.56037H64.6548V14H63.1186ZM80.1662 8.90909C80.1662 9.99621 79.9673 10.9309 79.5696 11.7131C79.1719 12.492 78.6267 13.0919 77.9339 13.5128C77.2446 13.9304 76.4607 14.1392 75.5824 14.1392C74.7008 14.1392 73.9136 13.9304 73.2209 13.5128C72.5315 13.0919 71.9879 12.4903 71.5902 11.7081C71.1925 10.9259 70.9936 9.9929 70.9936 8.90909C70.9936 7.82197 71.1925 6.88897 71.5902 6.11008C71.9879 5.32789 72.5315 4.72798 73.2209 4.31037C73.9136 3.88944 74.7008 3.67898 75.5824 3.67898C76.4607 3.67898 77.2446 3.88944 77.9339 4.31037C78.6267 4.72798 79.1719 5.32789 79.5696 6.11008C79.9673 6.88897 80.1662 7.82197 80.1662 8.90909ZM78.6449 8.90909C78.6449 8.08049 78.5107 7.38281 78.2422 6.81605C77.977 6.24598 77.6125 5.8151 77.1484 5.52344C76.6877 5.22846 76.1657 5.08097 75.5824 5.08097C74.9957 5.08097 74.4721 5.22846 74.0114 5.52344C73.5507 5.8151 73.1861 6.24598 72.9176 6.81605C72.6525 7.38281 72.5199 8.08049 72.5199 8.90909C72.5199 9.73769 72.6525 10.437 72.9176 11.0071C73.1861 11.5739 73.5507 12.0047 74.0114 12.2997C74.4721 12.5914 74.9957 12.7372 75.5824 12.7372C76.1657 12.7372 76.6877 12.5914 77.1484 12.2997C77.6125 12.0047 77.977 11.5739 78.2422 11.0071C78.5107 10.437 78.6449 9.73769 78.6449 8.90909ZM90.926 8.90909C90.926 9.99621 90.7271 10.9309 90.3294 11.7131C89.9316 12.492 89.3864 13.0919 88.6937 13.5128C88.0043 13.9304 87.2205 14.1392 86.3422 14.1392C85.4605 14.1392 84.6734 13.9304 83.9806 13.5128C83.2913 13.0919 82.7477 12.4903 82.35 11.7081C81.9522 10.9259 81.7534 9.9929 81.7534 8.90909C81.7534 7.82197 81.9522 6.88897 82.35 6.11008C82.7477 5.32789 83.2913 4.72798 83.9806 4.31037C84.6734 3.88944 85.4605 3.67898 86.3422 3.67898C87.2205 3.67898 88.0043 3.88944 88.6937 4.31037C89.3864 4.72798 89.9316 5.32789 90.3294 6.11008C90.7271 6.88897 90.926 7.82197 90.926 8.90909ZM89.4047 8.90909C89.4047 8.08049 89.2704 7.38281 89.002 6.81605C88.7368 6.24598 88.3722 5.8151 87.9082 5.52344C87.4475 5.22846 86.9255 5.08097 86.3422 5.08097C85.7555 5.08097 85.2318 5.22846 84.7711 5.52344C84.3104 5.8151 83.9458 6.24598 83.6774 6.81605C83.4122 7.38281 83.2797 8.08049 83.2797 8.90909C83.2797 9.73769 83.4122 10.437 83.6774 11.0071C83.9458 11.5739 84.3104 12.0047 84.7711 12.2997C85.2318 12.5914 85.7555 12.7372 86.3422 12.7372C86.9255 12.7372 87.4475 12.5914 87.9082 12.2997C88.3722 12.0047 88.7368 11.5739 89.002 11.0071C89.2704 10.437 89.4047 9.73769 89.4047 8.90909ZM96.1374 14H92.8413V3.81818H96.2418C97.2395 3.81818 98.0962 4.02202 98.8121 4.42969C99.5281 4.83404 100.077 5.41572 100.458 6.17472C100.842 6.9304 101.034 7.83688 101.034 8.89418C101.034 9.95478 100.841 10.8662 100.453 11.6286C100.068 12.3909 99.5115 12.9775 98.7823 13.3885C98.0531 13.7962 97.1715 14 96.1374 14ZM94.3775 12.6577H96.0529C96.8285 12.6577 97.4731 12.5118 97.9869 12.2202C98.5006 11.9252 98.8851 11.4993 99.1403 10.9425C99.3955 10.3823 99.5231 9.69957 99.5231 8.89418C99.5231 8.09541 99.3955 7.41761 99.1403 6.8608C98.8884 6.30398 98.5122 5.88139 98.0117 5.59304C97.5112 5.30469 96.8898 5.16051 96.1474 5.16051H94.3775V12.6577ZM112.203 6.4929C112.15 6.02225 111.931 5.65767 111.547 5.39915C111.162 5.13731 110.679 5.00639 110.095 5.00639C109.678 5.00639 109.316 5.07268 109.011 5.20526C108.706 5.33452 108.469 5.51349 108.3 5.74219C108.135 5.96757 108.052 6.22443 108.052 6.51278C108.052 6.75473 108.108 6.96354 108.221 7.1392C108.337 7.31487 108.488 7.46236 108.673 7.58168C108.862 7.69768 109.064 7.79545 109.28 7.875C109.495 7.95123 109.702 8.0142 109.901 8.06392L110.896 8.32244C111.22 8.40199 111.554 8.50971 111.895 8.6456C112.236 8.78149 112.553 8.96046 112.844 9.18253C113.136 9.40459 113.371 9.67969 113.55 10.0078C113.733 10.3359 113.824 10.7287 113.824 11.1861C113.824 11.7628 113.675 12.2749 113.376 12.7223C113.081 13.1697 112.652 13.5227 112.089 13.7812C111.529 14.0398 110.851 14.169 110.055 14.169C109.293 14.169 108.634 14.0481 108.077 13.8061C107.52 13.5642 107.084 13.2211 106.769 12.777C106.454 12.3295 106.28 11.7992 106.247 11.1861H107.788C107.818 11.554 107.938 11.8606 108.146 12.1058C108.358 12.3478 108.629 12.5284 108.957 12.6477C109.288 12.7637 109.651 12.8217 110.045 12.8217C110.48 12.8217 110.866 12.7538 111.204 12.6179C111.545 12.4787 111.814 12.2865 112.009 12.0412C112.205 11.7926 112.303 11.5026 112.303 11.1712C112.303 10.8696 112.216 10.6226 112.044 10.4304C111.875 10.2382 111.645 10.0791 111.353 9.95312C111.065 9.82718 110.738 9.71615 110.374 9.62003L109.17 9.2919C108.355 9.06984 107.709 8.74337 107.232 8.3125C106.758 7.88163 106.521 7.31155 106.521 6.60227C106.521 6.01562 106.68 5.50355 106.998 5.06605C107.316 4.62855 107.747 4.28883 108.29 4.04688C108.834 3.80161 109.447 3.67898 110.13 3.67898C110.819 3.67898 111.428 3.79995 111.955 4.0419C112.485 4.28385 112.902 4.61695 113.207 5.04119C113.512 5.46212 113.671 5.94602 113.685 6.4929H112.203ZM115.66 14V3.81818H122.043V5.14062H117.196V8.2429H121.71V9.56037H117.196V12.6776H122.103V14H115.66ZM124.955 14H123.325L126.989 3.81818H128.763L132.428 14H130.797L127.918 5.66761H127.839L124.955 14ZM125.229 10.0128H130.518V11.3054H125.229V10.0128ZM132.193 5.14062V3.81818H140.073V5.14062H136.896V14H135.365V5.14062H132.193ZM143.35 3.81818V14H141.814V3.81818H143.35ZM153.805 3.81818V14H152.393L147.218 6.53267H147.124V14H145.587V3.81818H147.009L152.19 11.2955H152.284V3.81818H153.805ZM162.937 7.0348C162.841 6.73319 162.712 6.46307 162.549 6.22443C162.39 5.98248 162.2 5.77699 161.977 5.60795C161.755 5.43561 161.502 5.30469 161.217 5.2152C160.935 5.12571 160.625 5.08097 160.287 5.08097C159.714 5.08097 159.197 5.22846 158.736 5.52344C158.275 5.81842 157.911 6.25095 157.642 6.82102C157.377 7.38778 157.244 8.08215 157.244 8.90412C157.244 9.7294 157.379 10.4271 157.647 10.9972C157.916 11.5672 158.284 11.9998 158.751 12.2947C159.218 12.5897 159.75 12.7372 160.347 12.7372C160.9 12.7372 161.383 12.6245 161.794 12.3991C162.208 12.1738 162.528 11.8556 162.753 11.4446C162.982 11.0303 163.096 10.5431 163.096 9.98295L163.494 10.0575H160.58V8.78977H164.583V9.94815C164.583 10.8033 164.4 11.5457 164.036 12.1754C163.674 12.8018 163.174 13.2857 162.534 13.6271C161.898 13.9685 161.169 14.1392 160.347 14.1392C159.425 14.1392 158.617 13.9271 157.921 13.5028C157.228 13.0786 156.688 12.477 156.3 11.6982C155.912 10.916 155.718 9.98793 155.718 8.91406C155.718 8.10204 155.831 7.37287 156.056 6.72656C156.282 6.08026 156.598 5.53172 157.006 5.08097C157.417 4.62689 157.899 4.28054 158.453 4.0419C159.009 3.79995 159.618 3.67898 160.277 3.67898C160.827 3.67898 161.339 3.76018 161.813 3.92258C162.291 4.08499 162.715 4.31534 163.086 4.61364C163.461 4.91193 163.771 5.26657 164.016 5.67756C164.261 6.08523 164.427 6.53764 164.513 7.0348H162.937Z" fill="black"/>
</svg>
