<svg width="105" height="84" viewBox="0 0 105 84" fill="none" xmlns="http://www.w3.org/2000/svg">
<path d="M0.00459641 23.8186C0.11491 23.3866 0.229821 22.9545 0.399888 22.2834C1.32377 22.2834 2.312 22.2007 3.28644 22.3018C4.59182 22.4397 4.89518 21.8927 4.86301 20.6793C4.78487 17.9674 4.84002 15.2555 4.84002 12.5436C4.84002 9.67545 5.80068 8.50337 8.61368 7.79092C9.11009 7.66222 9.53756 7.24855 9.99261 6.96816C9.60191 6.59585 9.25718 6.14081 8.80673 5.86503C7.58408 5.12041 6.9176 3.81502 7.21637 2.40852C7.51973 0.983633 8.42063 0.197646 9.65707 0C9.26178 0.868722 8.71021 1.73285 8.50337 2.67052C8.40225 3.12097 8.8435 3.82422 9.2342 4.2287C10.3787 5.42837 11.7852 5.12041 13.2882 3.43812C13.4031 3.53464 13.5181 3.63117 13.633 3.72769C12.9895 4.44473 12.3276 5.15258 11.7025 5.88341C11.3853 6.25572 11.1279 6.68319 10.8429 7.08767C11.229 7.33128 11.583 7.6852 12.0058 7.80931C14.4511 8.52175 15.3061 9.59731 15.3153 12.1483C15.329 15.0119 15.3796 17.8755 15.2877 20.739C15.2463 21.9709 15.6876 22.3662 16.8321 22.265C17.3285 22.2191 17.8433 22.2283 18.3351 22.3064C18.8821 22.3937 19.8427 22.5408 19.8657 22.7477C19.9622 23.5428 19.8657 24.4162 19.6083 25.1838C19.452 25.648 18.9097 26.0433 18.4592 26.3466C15.7657 28.1622 15.2509 30.6719 15.2831 33.8296C15.4348 49.5999 15.329 65.3748 15.3153 81.1497C15.3153 81.7426 15.3153 82.3402 15.3153 83.0572C14.7591 83.1078 14.327 83.1767 13.895 83.1767C11.3853 83.1859 8.86648 83.1032 6.36144 83.2135C4.98251 83.2778 4.68834 82.7906 4.69754 81.5036C4.76648 69.5483 4.77567 57.5931 4.80325 45.6378C4.81245 40.7656 4.8676 35.8934 4.78946 31.0212C4.77568 30.2214 4.34361 29.3251 3.8472 28.6678C3.09798 27.675 2.08677 26.8798 1.25482 25.9468C0.767601 25.3998 0.413677 24.7379 0 24.1266C0 24.0255 0 23.9243 0 23.8232L0.00459641 23.8186Z" fill="white"/>
<path d="M43.9555 61.8484C43.9555 64.9924 43.9555 67.9019 43.9555 70.8068C43.9555 74.4748 43.9463 78.1473 43.9555 81.8152C43.9555 82.5736 43.9647 83.1942 42.8937 83.185C35.1028 83.1482 27.3119 83.1482 19.521 83.1298C19.429 83.1298 19.3371 83.0655 18.997 82.9322C18.997 80.9925 18.9464 78.9517 19.0567 76.92C19.0705 76.6535 19.9116 76.2352 20.3759 76.226C25.101 76.1754 29.8261 76.2122 34.5512 76.1938C37.2907 76.1846 37.0655 76.5477 37.0793 73.7118C37.0839 72.5535 37.0241 71.3952 37.0976 70.2461C37.1666 69.1751 36.7667 68.8855 35.7187 68.8947C30.7914 68.9453 25.8686 68.9223 20.9412 68.9223C20.3529 68.9223 19.7646 68.9223 19.213 68.9223C16.5103 51.3134 28.461 40.3372 40.3059 37.9057C41.4367 37.6759 42.5995 37.6115 43.7303 37.3955C44.1531 37.3127 44.5346 37.0094 44.9299 36.8071C44.6495 36.4164 44.4565 35.8603 44.075 35.658C42.6547 34.9088 41.9836 33.7965 42.1767 32.2245C42.3651 30.6893 43.2936 29.8344 44.861 29.5586C44.3738 30.271 43.6797 30.8778 43.551 31.5856C43.4269 32.2705 43.6889 33.2127 44.1256 33.7781C45.0265 34.9548 46.4973 34.7296 48.1428 33.3506C48.2485 33.4426 48.3497 33.5345 48.4554 33.6264C47.8441 34.2561 47.2098 34.872 46.626 35.5293C46.2445 35.9614 45.9365 36.4624 45.4631 37.1197C47.8165 37.4323 49.7286 37.5334 51.5718 37.9562C62.332 40.4245 69.0887 47.2364 72.5498 57.537C72.7244 58.0518 72.7842 58.6217 72.7842 59.1687C72.7658 66.8585 72.7336 74.5483 72.6969 82.2381C72.6969 82.4817 72.6371 82.7207 72.5728 83.185C70.3573 83.185 68.1602 83.2309 65.9677 83.1436C65.5678 83.1298 65.1404 82.6288 64.8094 82.2795C61.9183 79.2045 59.0363 76.1203 56.182 73.0131C55.8602 72.6638 55.7223 72.1444 55.5017 71.7031C55.2719 71.8548 55.0466 72.0065 54.8168 72.1582C54.8168 73.6888 54.8168 75.2148 54.8168 76.7454C54.8168 78.5058 54.8076 80.2662 54.8214 82.0221C54.826 82.6794 54.7892 83.2309 53.9021 83.2171C51.8981 83.1942 49.8941 83.2079 47.7521 83.2079V61.8346C50.0319 61.8346 52.321 61.7933 54.6054 61.876C55.0099 61.8898 55.4465 62.3678 55.7867 62.7125C58.7192 65.6772 61.6333 68.6603 64.5612 71.6342C64.8002 71.8778 65.0806 72.08 65.5724 72.4983C65.6414 71.864 65.7241 71.4595 65.7241 71.055C65.7471 67.1343 65.7931 63.2135 65.7471 59.2928C65.7379 58.4792 65.5127 57.5967 65.1358 56.8797C62.4698 51.8052 58.7284 47.742 53.5068 45.2554C46.4284 41.8816 39.8279 42.8284 33.8526 47.8615C30.6948 50.5182 28.3093 53.8369 26.5581 57.5416C26.0617 58.5895 26.2317 59.9869 26.2593 61.2233C26.2639 61.4347 27.0821 61.807 27.5279 61.8116C32.3541 61.8576 37.1804 61.8392 42.002 61.8438C42.595 61.8438 43.1925 61.8438 43.9555 61.8438V61.8484Z" fill="white"/>
<path d="M104.867 83.1722C102.725 83.1722 100.721 83.2181 98.722 83.1262C98.4048 83.1124 97.8762 82.4919 97.8578 82.1334C97.7751 80.4327 97.8027 78.7182 97.8578 77.013C97.8854 76.2316 97.6418 75.9328 96.842 75.9374C92.6731 75.9604 88.5041 75.965 84.3352 75.9374C83.5262 75.9328 83.278 76.2775 83.2872 77.0222C83.3102 78.6309 83.2366 80.2396 83.3148 81.8438C83.3653 82.924 82.9608 83.2365 81.9266 83.1951C80.134 83.1262 78.3369 83.1768 76.4156 83.1768C76.3788 82.4827 76.3282 81.9449 76.3328 81.4117C76.3834 76.443 76.4155 71.4697 76.5121 66.501C76.6454 59.7121 80.6442 54.8031 87.2493 53.2449C95.3298 51.3374 103.052 56.0119 104.789 63.8718C104.895 64.359 104.987 64.8646 104.987 65.3611C105.005 70.9365 105.001 76.512 104.996 82.0874C104.996 82.3816 104.927 82.6711 104.863 83.1722H104.867ZM90.6093 69.052C92.6639 69.052 94.7231 69.0933 96.7777 69.0152C97.173 69.0014 97.8165 68.5556 97.8854 68.2108C98.653 64.4877 96.1893 60.5808 92.5352 59.6063C87.5664 58.278 82.2714 63.2973 83.4251 68.2982C83.4986 68.6199 84.1789 69.0014 84.5926 69.0152C86.5966 69.0887 88.6006 69.0474 90.6093 69.052Z" fill="white"/>
</svg>
